

<svg viewBox="0 0 104 102" preserveAspectRatio="xMidYMid meet" class="css-8aabad" id="ccdbdaha"><defs id="SvgjsDefs1013"></defs><g id="SvgjsG1014" featurekey="symbolContainer" transform="matrix(1,0,0,1,0,0)" fill="#111"><rect xmlns="http://www.w3.org/2000/svg" width="104" height="102" rx="10" ry="10"></rect></g><g id="SvgjsG1015" featurekey="uHI19F-0" transform="matrix(2.9040464046550887,0,0,2.9040464046550887,-92.90642486368174,-95.73786567699729)"  fill="#28e6f2"><path xmlns="http://www.w3.org/2000/svg" d="M50,47.073c-1.991,0-3.61-1.619-3.61-3.609c0-1.991,1.619-3.61,3.61-3.61c1.99,0,3.609,1.619,3.609,3.61  C53.609,45.454,51.99,47.073,50,47.073z M50,40.854c-1.439,0-2.61,1.171-2.61,2.61s1.171,2.609,2.61,2.609  c1.438,0,2.609-1.17,2.609-2.609S51.438,40.854,50,40.854z"></path><path xmlns="http://www.w3.org/2000/svg" d="M57.732,47.721c-1.385,0-2.512-1.127-2.512-2.512s1.127-2.512,2.512-2.512c1.384,0,2.51,1.127,2.51,2.512  S59.116,47.721,57.732,47.721z M57.732,43.697c-0.834,0-1.512,0.678-1.512,1.512c0,0.833,0.678,1.512,1.512,1.512  c0.832,0,1.51-0.678,1.51-1.512S58.564,43.697,57.732,43.697z"></path><path xmlns="http://www.w3.org/2000/svg" d="M58.271,57.044v-1c0.838,0,1.521-0.683,1.521-1.521v-3.905c0-0.839-0.683-1.521-1.521-1.521H57.4  c-0.84,0-1.521,0.682-1.521,1.521v6.388h-1v-6.388c0-1.39,1.131-2.521,2.521-2.521h0.871c1.391,0,2.521,1.131,2.521,2.521v3.905  C60.793,55.913,59.662,57.044,58.271,57.044z"></path><path xmlns="http://www.w3.org/2000/svg" d="M41.939,47.721c-1.384,0-2.51-1.127-2.51-2.512s1.126-2.512,2.51-2.512c1.385,0,2.512,1.127,2.512,2.512  S43.324,47.721,41.939,47.721z M41.939,43.697c-0.833,0-1.51,0.678-1.51,1.512c0,0.833,0.677,1.512,1.51,1.512  s1.512-0.678,1.512-1.512S42.773,43.697,41.939,43.697z"></path><path xmlns="http://www.w3.org/2000/svg" d="M41.4,57.044c-1.39,0-2.521-1.131-2.521-2.521v-3.905c0-1.39,1.131-2.521,2.521-2.521h0.871c1.39,0,2.521,1.131,2.521,2.521  v6.388h-1v-6.388c0-0.839-0.683-1.521-1.521-1.521H41.4c-0.839,0-1.521,0.682-1.521,1.521v3.905c0,0.838,0.683,1.521,1.521,1.521  V57.044z"></path><path xmlns="http://www.w3.org/2000/svg" d="M54.025,61.083h-1v-9.542c0-1.389-1.131-2.52-2.521-2.52h-1.304c-1.389,0-2.519,1.13-2.519,2.52v5.833  c0,1.39,1.13,2.521,2.519,2.521v1c-1.94,0-3.519-1.58-3.519-3.521v-5.833c0-1.94,1.579-3.52,3.519-3.52h1.304  c1.94,0,3.521,1.579,3.521,3.52V61.083z"></path></g></svg>