<?xml version="1.0" encoding="UTF-8"?>
<svg xmlns="http://www.w3.org/2000/svg" version="1.1" viewBox="0 0 410.4 102">
  <defs>
    <style>
      .cls-1 {
        fill: #111;
      }

      .cls-2 {
        fill: #fff;
      }
    </style>
  </defs>
  <!-- Generator: Adobe Illustrator 28.7.3, SVG Export Plug-In . SVG Version: 1.2.0 Build 164)  -->
  <g>
    <g id="bahhceed">
      <g id="SvgjsG1014">
        <rect class="cls-2" width="104" height="102" rx="10" ry="10"/>
      </g>
      <g id="SvgjsG1015">
        <path class="cls-1" d="M52.3,41c-5.8,0-10.5-4.7-10.5-10.5s4.7-10.5,10.5-10.5,10.5,4.7,10.5,10.5-4.7,10.5-10.5,10.5ZM52.3,22.9c-4.2,0-7.6,3.4-7.6,7.6s3.4,7.6,7.6,7.6,7.6-3.4,7.6-7.6-3.4-7.6-7.6-7.6Z"/>
        <path class="cls-1" d="M74.7,42.8c-4,0-7.3-3.3-7.3-7.3s3.3-7.3,7.3-7.3,7.3,3.3,7.3,7.3-3.3,7.3-7.3,7.3ZM74.7,31.2c-2.4,0-4.4,2-4.4,4.4s2,4.4,4.4,4.4,4.4-2,4.4-4.4-2-4.4-4.4-4.4Z"/>
        <path class="cls-1" d="M76.3,69.9v-2.9c2.4,0,4.4-2,4.4-4.4v-11.3c0-2.4-2-4.4-4.4-4.4h-2.5c-2.4,0-4.4,2-4.4,4.4v18.6h-2.9v-18.6c0-4,3.3-7.3,7.3-7.3h2.5c4,0,7.3,3.3,7.3,7.3v11.3c0,4-3.3,7.3-7.3,7.3Z"/>
        <path class="cls-1" d="M28.9,42.8c-4,0-7.3-3.3-7.3-7.3s3.3-7.3,7.3-7.3,7.3,3.3,7.3,7.3-3.3,7.3-7.3,7.3ZM28.9,31.2c-2.4,0-4.4,2-4.4,4.4s2,4.4,4.4,4.4,4.4-2,4.4-4.4-2-4.4-4.4-4.4Z"/>
        <path class="cls-1" d="M27.3,69.9c-4,0-7.3-3.3-7.3-7.3v-11.3c0-4,3.3-7.3,7.3-7.3h2.5c4,0,7.3,3.3,7.3,7.3v18.6h-2.9v-18.6c0-2.4-2-4.4-4.4-4.4h-2.5c-2.4,0-4.4,2-4.4,4.4v11.3c0,2.4,2,4.4,4.4,4.4v2.9Z"/>
        <path class="cls-1" d="M64,81.6h-2.9v-27.7c0-4-3.3-7.3-7.3-7.3h-3.8c-4,0-7.3,3.3-7.3,7.3v16.9c0,4,3.3,7.3,7.3,7.3v2.9c-5.6,0-10.2-4.6-10.2-10.2v-16.9c0-5.6,4.6-10.2,10.2-10.2h3.8c5.6,0,10.2,4.6,10.2,10.2v27.7Z"/>
      </g>
      <g id="SvgjsG1016">
        <path class="cls-2" d="M140.2,43.6c3.5,0,6.2,1,8.2,3.1s3,4.9,3,8.4v20.2h-5.9v-18.5c0-2.4-.6-4.3-1.9-5.7s-3-2.1-5.2-2.1-4.9.9-6.4,2.7-2.3,4.3-2.3,7.3v16.2h-5.9v-31h5.9v4.8h.1c.8-1.7,2.2-3.1,4-4.1s3.9-1.5,6.2-1.5ZM174.5,43.6c4.7,0,8.4,1.5,11.1,4.5s4,7.1,4,12.3v1.6h-24.8c0,2.5,1,4.6,3,6.4s4.5,2.6,7.4,2.6c3.2,0,6.1-1.5,8.5-4.6l4.4,3.4c-3.3,4.2-7.9,6.3-13.7,6.3s-8.6-1.5-11.5-4.5-4.4-6.9-4.5-11.7c0-4.6,1.5-8.5,4.5-11.5s6.8-4.6,11.5-4.7ZM183.3,57.4c0-2.9-.9-5.1-2.5-6.7s-3.7-2.3-6.5-2.3-3.5.4-4.9,1.3-2.6,2-3.4,3.5-1.2,2.8-1.2,4.2c0,0,18.6,0,18.6,0ZM204.8,35.7v8.7s8.4,0,8.4,0v5.1h-8.4v14.9c0,2,.3,3.5.8,4.6s1.8,1.6,3.6,1.6,3.1-.3,4.2-.9v5.4c-1.1.6-2.9,1-5.4,1-2.4,0-4.2-.4-5.5-1.1s-2.2-1.7-2.8-3-.9-3.3-.9-6v-16.5h-6.8v-5.1h6.8v-8.7h5.9ZM223.7,44.4l7,23.1h.1l7.4-23.1h6.2l7.8,23.1h.1l6.7-23.1h6.2l-10,31h-5.9l-8.2-23.1h-.1l-7.4,23.1h-6.3l-10.2-31h6.6,0ZM285.3,43.6c4.6,0,8.4,1.6,11.6,4.7s4.8,7,4.8,11.5c0,4.6-1.6,8.4-4.8,11.5s-7.1,4.7-11.7,4.8c-4.5,0-8.4-1.6-11.6-4.7s-4.8-7-4.9-11.6c0-4.5,1.6-8.3,4.7-11.4s7.1-4.7,11.7-4.8h0ZM275.2,59.9c0,3.2.9,5.8,2.8,7.7s4.3,3,7.4,3c3.1,0,5.6-1,7.4-3s2.8-4.6,2.8-7.8c0-3.2-.9-5.8-2.7-7.7s-4.3-3-7.5-3c-3.1,0-5.6,1-7.4,3.1s-2.7,4.6-2.7,7.7h0ZM324.5,43.6c1.1,0,2,.1,2.6.4l-.3,6.3c-1.1-.3-2.1-.5-2.9-.5-5.8,0-8.7,3.2-8.8,9.7v15.8h-5.9v-31h5.9v4.8h.1c.8-1.7,2-3,3.8-4s3.6-1.5,5.5-1.5h0ZM339.2,26v31.9l13.4-13.5h8.2l-14.5,14.1,15.7,16.9h-8.4l-14.4-16.1v16.1h-5.9V26h5.9ZM370.6,29c1.2,0,2.2.4,3,1.3s1.3,1.9,1.3,3-.4,2.2-1.3,3.1-1.9,1.2-3,1.2-2.2-.4-3.1-1.2-1.2-1.9-1.2-3.1.4-2.2,1.3-3.1,1.9-1.2,3-1.2h0ZM373.6,44.4v31h-5.9v-31h5.9ZM399.1,43.6c3.5,0,6.2,1,8.2,3.1s3,4.9,3,8.4v20.2h-5.9v-18.5c0-2.4-.6-4.3-1.9-5.7s-3-2.1-5.2-2.1-4.9.9-6.4,2.7-2.3,4.3-2.3,7.3v16.2h-5.9v-31h5.9v4.8h.1c.8-1.7,2.2-3.1,4-4.1s3.9-1.5,6.2-1.5h0Z"/>
      </g>
    </g>
  </g>
</svg>